<?xml version="1.0" encoding="UTF-8"?>
<svg id="Layer_1" xmlns="http://www.w3.org/2000/svg" version="1.1" viewBox="0 0 241.9 242.89">
  <!-- Generator: Adobe Illustrator 29.8.2, SVG Export Plug-In . SVG Version: 2.1.1 Build 3)  -->
  <defs>
    <style>
      .st0 {
        fill: #fff;
      }
    </style>
  </defs>
  <rect class="st0" x="104.29" y="-209.23" width="236.62" height="12.87"/>
  <rect class="st0" x="104.29" y="-158.41" width="236.62" height="12.87"/>
  <path class="st0" d="M236.62,5.53h0c-3.86-3.86-10.11-3.86-13.97,0l-101.7,101.7L19.26,5.53c-3.86-3.86-10.11-3.86-13.97,0h0c-3.86,3.86-3.86,10.11,0,13.97l101.7,101.7L5.29,222.89c-3.86,3.86-3.86,10.11,0,13.97h0c3.86,3.86,10.11,3.86,13.97,0l101.7-101.7,101.7,101.7c3.86,3.86,10.11,3.86,13.97,0h0c3.86-3.86,3.86-10.11,0-13.97l-101.7-101.7L236.62,19.5c3.86-3.86,3.86-10.11,0-13.97Z"/>
</svg>